<?xml version="1.0" encoding="UTF-8"?>
<!DOCTYPE svg PUBLIC "-//W3C//DTD SVG 1.1//EN" "http://www.w3.org/Graphics/SVG/1.1/DTD/svg11.dtd">
<svg xmlns="http://www.w3.org/2000/svg" version="1.1" width="1024px" height="1024px" style="shape-rendering:geometricPrecision; text-rendering:geometricPrecision; image-rendering:optimizeQuality; fill-rule:evenodd; clip-rule:evenodd" xmlns:xlink="http://www.w3.org/1999/xlink">
<g><path style="opacity:0.999" fill="#fefefe" d="M 160.5,-0.5 C 394.5,-0.5 628.5,-0.5 862.5,-0.5C 938.724,10.8834 989.89,52.8834 1016,125.5C 1019.23,137.15 1021.73,148.816 1023.5,160.5C 1023.5,394.5 1023.5,628.5 1023.5,862.5C 1012.12,938.724 970.117,989.89 897.5,1016C 885.85,1019.23 874.184,1021.73 862.5,1023.5C 628.5,1023.5 394.5,1023.5 160.5,1023.5C 84.2765,1012.12 33.1098,970.117 7,897.5C 3.77193,885.85 1.27193,874.184 -0.5,862.5C -0.5,628.5 -0.5,394.5 -0.5,160.5C 10.8834,84.2765 52.8834,33.1098 125.5,7C 137.15,3.77193 148.816,1.27193 160.5,-0.5 Z"/></g>
<g><path style="opacity:1" fill="#ea2622" d="M 402.5,279.5 C 403.026,281.23 404.026,282.564 405.5,283.5C 405.433,284.959 405.766,286.292 406.5,287.5C 407.596,290.032 408.929,292.365 410.5,294.5C 470.309,421.262 530.309,547.929 590.5,674.5C 590.043,675.298 589.376,675.631 588.5,675.5C 526.886,545.277 465.053,415.277 403,285.5C 398.915,280.707 393.749,277.874 387.5,277C 373.446,276.493 359.446,277.16 345.5,279C 341.509,279.412 338.342,281.246 336,284.5C 313.559,331.161 291.893,378.161 271,425.5C 270.241,427.063 269.074,428.063 267.5,428.5C 291.898,374.816 316.398,321.149 341,267.5C 359.426,266.341 377.926,266.175 396.5,267C 398.912,270.99 400.912,275.157 402.5,279.5 Z"/></g>
<g><path style="opacity:1" fill="#eeeeee" d="M 402.5,279.5 C 411.839,279.334 421.173,279.5 430.5,280C 437.362,281.526 442.528,285.359 446,291.5C 498.928,401.35 551.261,511.35 603,621.5C 603.232,620.263 603.732,619.263 604.5,618.5C 604.354,622.519 604.021,626.519 603.5,630.5C 549.365,517.56 495.198,404.56 441,291.5C 437.453,287.286 432.953,284.786 427.5,284C 420.174,283.5 412.841,283.334 405.5,283.5C 404.026,282.564 403.026,281.23 402.5,279.5 Z"/></g>
<g><path style="opacity:1" fill="#f2100f" d="M 585.5,677.5 C 584.833,677.833 584.167,678.167 583.5,678.5C 521.978,547.335 459.644,416.835 396.5,287C 394.725,285.561 392.725,284.561 390.5,284C 375.814,283.345 361.147,283.679 346.5,285C 343.438,286.061 340.938,287.894 339,290.5C 271.267,439.276 203.1,587.61 134.5,735.5C 132.862,734.841 131.195,734.174 129.5,733.5C 128.374,732.192 128.374,730.858 129.5,729.5C 132.434,728.107 134.934,726.107 137,723.5C 203.24,580.455 268.907,437.121 334,293.5C 336.586,287.912 340.753,284.079 346.5,282C 361.152,280.795 375.819,280.462 390.5,281C 395.188,281.92 398.688,284.42 401,288.5C 463.014,417.865 524.514,547.531 585.5,677.5 Z"/></g>
<g><path style="opacity:1" fill="#f70909" d="M 583.5,678.5 C 582.609,679.11 581.609,679.443 580.5,679.5C 518.797,550.113 457.297,421.113 396,292.5C 393.658,289.246 390.491,287.412 386.5,287C 380.506,286.638 374.673,286.471 369,286.5C 362.622,287.128 356.289,287.795 350,288.5C 345.52,288.567 342.187,290.901 340,295.5C 286.934,411.793 233.768,527.959 180.5,644C 180.833,644.333 181.167,644.667 181.5,645C 166.925,675.567 152.258,706.067 137.5,736.5C 136.391,736.443 135.391,736.11 134.5,735.5C 203.1,587.61 271.267,439.276 339,290.5C 340.938,287.894 343.438,286.061 346.5,285C 361.147,283.679 375.814,283.345 390.5,284C 392.725,284.561 394.725,285.561 396.5,287C 459.644,416.835 521.978,547.335 583.5,678.5 Z"/></g>
<g><path style="opacity:1" fill="#dfdfdf" d="M 405.5,283.5 C 412.841,283.334 420.174,283.5 427.5,284C 432.953,284.786 437.453,287.286 441,291.5C 495.198,404.56 549.365,517.56 603.5,630.5C 603.702,632.95 603.369,635.283 602.5,637.5C 548.108,524.379 493.942,411.046 440,297.5C 437.257,292.419 433.09,289.253 427.5,288C 420.508,287.5 413.508,287.334 406.5,287.5C 405.766,286.292 405.433,284.959 405.5,283.5 Z"/></g>
<g><path style="opacity:1" fill="#fe0101" d="M 580.5,679.5 C 576.076,681.643 571.743,683.976 567.5,686.5C 565.181,686.992 563.181,687.992 561.5,689.5C 557.849,690.659 554.515,692.326 551.5,694.5C 546.517,696.073 541.683,698.073 537,700.5C 490.593,604.685 444.427,508.685 398.5,412.5C 396.833,409.167 395.167,405.833 393.5,402.5C 392.439,399.378 391.105,396.378 389.5,393.5C 382.68,379.193 375.847,364.86 369,350.5C 335.564,423.038 302.398,495.705 269.5,568.5C 269.918,569.222 270.584,569.722 271.5,570C 267.035,576.942 268.201,582.776 275,587.5C 288.75,586.46 302.584,584.46 316.5,581.5C 338.662,577.868 361.328,574.035 384.5,570C 391.126,568.695 397.792,568.362 404.5,569C 405.333,569.833 406.167,570.667 407,571.5C 409.865,583.06 412.031,594.726 413.5,606.5C 355.15,616.114 296.817,625.947 238.5,636C 220.691,674.451 203.024,712.951 185.5,751.5C 184.833,753.167 184.167,754.833 183.5,756.5C 181.297,756.396 179.297,755.73 177.5,754.5C 174.618,752.892 171.618,751.559 168.5,750.5C 166.249,749.305 163.915,748.305 161.5,747.5C 153.5,743.833 145.5,740.167 137.5,736.5C 152.258,706.067 166.925,675.567 181.5,645C 181.167,644.667 180.833,644.333 180.5,644C 233.768,527.959 286.934,411.793 340,295.5C 342.187,290.901 345.52,288.567 350,288.5C 356.289,287.795 362.622,287.128 369,286.5C 374.673,286.471 380.506,286.638 386.5,287C 390.491,287.412 393.658,289.246 396,292.5C 457.297,421.113 518.797,550.113 580.5,679.5 Z"/></g>
<g><path style="opacity:1" fill="#cdcdcd" d="M 406.5,287.5 C 413.508,287.334 420.508,287.5 427.5,288C 433.09,289.253 437.257,292.419 440,297.5C 493.942,411.046 548.108,524.379 602.5,637.5C 602.774,642.263 602.441,646.93 601.5,651.5C 545.932,535.347 490.432,419.014 435,302.5C 433.01,298.51 429.843,296.01 425.5,295C 420.511,294.501 415.511,294.334 410.5,294.5C 408.929,292.365 407.596,290.032 406.5,287.5 Z"/></g>
<g><path style="opacity:1" fill="#c1bfbf" d="M 410.5,294.5 C 415.511,294.334 420.511,294.501 425.5,295C 429.843,296.01 433.01,298.51 435,302.5C 490.432,419.014 545.932,535.347 601.5,651.5C 601.714,658.197 601.381,664.864 600.5,671.5C 600.436,673.557 601.102,675.223 602.5,676.5C 603.167,677.833 604.167,678.833 605.5,679.5C 608.833,683.833 612.167,688.167 615.5,692.5C 605.43,698.532 594.763,703.532 583.5,707.5C 580.906,706.408 578.739,704.741 577,702.5C 574.027,697.754 571.527,692.754 569.5,687.5C 569.043,686.702 568.376,686.369 567.5,686.5C 571.743,683.976 576.076,681.643 580.5,679.5C 581.609,679.443 582.609,679.11 583.5,678.5C 584.167,678.167 584.833,677.833 585.5,677.5C 586.71,677.068 587.71,676.401 588.5,675.5C 589.376,675.631 590.043,675.298 590.5,674.5C 530.309,547.929 470.309,421.262 410.5,294.5 Z"/></g>
<g><path style="opacity:1" fill="#ed1918" d="M 588.5,675.5 C 587.71,676.401 586.71,677.068 585.5,677.5C 524.514,547.531 463.014,417.865 401,288.5C 398.688,284.42 395.188,281.92 390.5,281C 375.819,280.462 361.152,280.795 346.5,282C 340.753,284.079 336.586,287.912 334,293.5C 268.907,437.121 203.24,580.455 137,723.5C 134.934,726.107 132.434,728.107 129.5,729.5C 175.244,629.014 221.244,528.68 267.5,428.5C 269.074,428.063 270.241,427.063 271,425.5C 291.893,378.161 313.559,331.161 336,284.5C 338.342,281.246 341.509,279.412 345.5,279C 359.446,277.16 373.446,276.493 387.5,277C 393.749,277.874 398.915,280.707 403,285.5C 465.053,415.277 526.886,545.277 588.5,675.5 Z"/></g>
<g><path style="opacity:1" fill="#c0bfbe" d="M 389.5,393.5 C 363.852,449.466 338.185,505.466 312.5,561.5C 299.742,563.847 287.075,566.18 274.5,568.5C 272.833,568.5 271.167,568.5 269.5,568.5C 302.398,495.705 335.564,423.038 369,350.5C 375.847,364.86 382.68,379.193 389.5,393.5 Z"/></g>
<g><path style="opacity:1" fill="#d2d1d1" d="M 389.5,393.5 C 391.105,396.378 392.439,399.378 393.5,402.5C 369.018,454.139 345.018,506.139 321.5,558.5C 321.624,559.107 321.957,559.44 322.5,559.5C 319.344,560.434 316.011,561.101 312.5,561.5C 338.185,505.466 363.852,449.466 389.5,393.5 Z"/></g>
<g><path style="opacity:1" fill="#eaeaea" d="M 393.5,402.5 C 395.167,405.833 396.833,409.167 398.5,412.5C 395.973,414.51 394.139,417.177 393,420.5C 372.426,466.645 351.593,512.645 330.5,558.5C 327.904,559.265 325.237,559.599 322.5,559.5C 321.957,559.44 321.624,559.107 321.5,558.5C 345.018,506.139 369.018,454.139 393.5,402.5 Z"/></g>
<g><path style="opacity:1" fill="#e62321" d="M 869.5,429.5 C 870.833,431.5 872.5,433.167 874.5,434.5C 875.579,436.543 877.246,437.876 879.5,438.5C 880.5,440.167 881.833,441.5 883.5,442.5C 884.833,444.167 886.167,445.833 887.5,447.5C 886.178,447.33 885.011,447.663 884,448.5C 877.168,440.653 869.501,433.987 861,428.5C 860,428.833 859,429.167 858,429.5C 856.477,427.38 854.644,427.047 852.5,428.5C 849.531,427.262 846.364,426.595 843,426.5C 838.774,426.821 834.607,427.487 830.5,428.5C 821.651,428.071 812.818,427.738 804,427.5C 802.775,427.862 801.609,428.362 800.5,429C 779.798,429.152 759.131,429.985 738.5,431.5C 736.811,431.274 735.145,430.941 733.5,430.5C 711.298,431.802 688.964,433.136 666.5,434.5C 660.128,433.401 653.961,434.068 648,436.5C 645.958,435.715 643.958,436.048 642,437.5C 641.667,437.167 641.333,436.833 641,436.5C 639.387,438.777 637.22,440.277 634.5,441C 633.5,442 632.5,443 631.5,444C 632.833,444.667 632.833,445.333 631.5,446C 630.551,446.617 629.718,446.451 629,445.5C 624.605,450.392 620.105,455.059 615.5,459.5C 615.34,457.801 615.506,456.134 616,454.5C 625.47,446.031 634.637,437.197 643.5,428C 714.785,423.946 786.118,420.946 857.5,419C 861.668,422.336 865.668,425.836 869.5,429.5 Z"/></g>
<g><path style="opacity:1" fill="#e91b1b" d="M 887.5,447.5 C 887.833,447.5 888.167,447.5 888.5,447.5C 888.5,449.833 888.5,452.167 888.5,454.5C 885.487,453.662 882.82,452.162 880.5,450C 873.748,441.471 865.414,435.138 855.5,431C 785.786,432.234 716.119,434.9 646.5,439C 642.888,440.139 639.554,441.806 636.5,444C 629.632,451.036 622.632,457.869 615.5,464.5C 615.5,462.833 615.5,461.167 615.5,459.5C 620.105,455.059 624.605,450.392 629,445.5C 629.718,446.451 630.551,446.617 631.5,446C 632.833,445.333 632.833,444.667 631.5,444C 632.5,443 633.5,442 634.5,441C 637.22,440.277 639.387,438.777 641,436.5C 641.333,436.833 641.667,437.167 642,437.5C 643.958,436.048 645.958,435.715 648,436.5C 653.961,434.068 660.128,433.401 666.5,434.5C 688.964,433.136 711.298,431.802 733.5,430.5C 735.145,430.941 736.811,431.274 738.5,431.5C 759.131,429.985 779.798,429.152 800.5,429C 801.609,428.362 802.775,427.862 804,427.5C 812.818,427.738 821.651,428.071 830.5,428.5C 834.607,427.487 838.774,426.821 843,426.5C 846.364,426.595 849.531,427.262 852.5,428.5C 854.644,427.047 856.477,427.38 858,429.5C 859,429.167 860,428.833 861,428.5C 869.501,433.987 877.168,440.653 884,448.5C 885.011,447.663 886.178,447.33 887.5,447.5 Z"/></g>
<g><path style="opacity:1" fill="#f5f4f4" d="M 869.5,429.5 C 879.557,429.135 889.557,429.635 899.5,431C 902.48,432.634 905.48,434.3 908.5,436C 918.473,444.201 927.306,453.368 935,463.5C 936.286,466.405 937.286,469.405 938,472.5C 940.743,545.979 942.909,619.479 944.5,693C 945.568,704.019 942.734,713.852 936,722.5C 929.136,729.698 921.97,736.532 914.5,743C 907.925,747.645 900.592,749.811 892.5,749.5C 819.466,745.956 746.466,741.79 673.5,737C 667.619,735.393 662.286,732.726 657.5,729C 652,722.833 646.5,716.667 641,710.5C 640.517,709.552 640.351,708.552 640.5,707.5C 642.861,707.674 645.194,708.007 647.5,708.5C 652.649,715.149 658.315,721.315 664.5,727C 669.069,729.856 674.069,731.523 679.5,732C 742.839,735.6 806.172,739.267 869.5,743C 881.238,743.935 892.905,743.602 904.5,742C 914.69,735.47 923.857,727.637 932,718.5C 937.091,711.559 939.591,703.726 939.5,695C 937.057,620.825 934.557,546.658 932,472.5C 931.338,467.518 929.338,463.184 926,459.5C 919.117,452.649 911.95,446.149 904.5,440C 895.1,435.116 885.1,433.283 874.5,434.5C 872.5,433.167 870.833,431.5 869.5,429.5 Z"/></g>
<g><path style="opacity:1" fill="#f01815" d="M 888.5,454.5 C 889.148,464.153 889.482,473.82 889.5,483.5C 888.674,478.684 888.174,473.684 888,468.5C 886.833,466.167 885.667,463.833 884.5,461.5C 877.807,455.139 871.14,448.806 864.5,442.5C 861.112,440.139 857.446,438.306 853.5,437C 829.775,436.175 806.108,436.675 782.5,438.5C 781.833,438.167 781.167,437.833 780.5,437.5C 749.09,439.468 717.59,441.135 686,442.5C 673.177,442.157 660.343,442.99 647.5,445C 637.518,450.969 628.684,458.469 621,467.5C 619.139,469.888 617.806,472.554 617,475.5C 612.166,537.018 607.333,598.518 602.5,660C 602.643,665.331 602.643,670.831 602.5,676.5C 601.102,675.223 600.436,673.557 600.5,671.5C 601.381,664.864 601.714,658.197 601.5,651.5C 602.441,646.93 602.774,642.263 602.5,637.5C 603.369,635.283 603.702,632.95 603.5,630.5C 604.021,626.519 604.354,622.519 604.5,618.5C 607.927,567.136 611.594,515.802 615.5,464.5C 622.632,457.869 629.632,451.036 636.5,444C 639.554,441.806 642.888,440.139 646.5,439C 716.119,434.9 785.786,432.234 855.5,431C 865.414,435.138 873.748,441.471 880.5,450C 882.82,452.162 885.487,453.662 888.5,454.5 Z"/></g>
<g><path style="opacity:1" fill="#f70d0b" d="M 889.5,483.5 C 890.231,521.174 891.231,558.841 892.5,596.5C 890.53,592.166 889.364,587.5 889,582.5C 887.238,544.931 885.571,507.265 884,469.5C 882.667,466.833 881.333,464.167 880,461.5C 872.821,454.656 865.321,448.156 857.5,442C 855.913,441.138 854.246,440.471 852.5,440C 785.168,441.791 717.501,444.457 649.5,448C 645.663,449.173 642.329,451.173 639.5,454C 634,459.5 628.5,465 623,470.5C 621.25,473.246 620.25,476.246 620,479.5C 618.99,493.493 617.824,507.327 616.5,521C 616.585,522.107 616.919,523.107 617.5,524C 615.839,527.608 615.505,531.275 616.5,535C 615.555,543.006 614.555,551.006 613.5,559C 613.985,561.68 614.318,564.347 614.5,567C 613.833,569 613.167,571 612.5,573C 613.066,576.052 613.399,579.052 613.5,582C 612.378,589.033 611.378,596.033 610.5,603C 610.833,605.333 611.167,607.667 611.5,610C 610.093,622.324 608.76,634.658 607.5,647C 607.566,649.109 607.899,651.275 608.5,653.5C 606.91,656.639 606.576,659.805 607.5,663C 606.708,668.448 606.041,673.948 605.5,679.5C 604.167,678.833 603.167,677.833 602.5,676.5C 602.643,670.831 602.643,665.331 602.5,660C 607.333,598.518 612.166,537.018 617,475.5C 617.806,472.554 619.139,469.888 621,467.5C 628.684,458.469 637.518,450.969 647.5,445C 660.343,442.99 673.177,442.157 686,442.5C 717.59,441.135 749.09,439.468 780.5,437.5C 781.167,437.833 781.833,438.167 782.5,438.5C 806.108,436.675 829.775,436.175 853.5,437C 857.446,438.306 861.112,440.139 864.5,442.5C 871.14,448.806 877.807,455.139 884.5,461.5C 885.667,463.833 886.833,466.167 888,468.5C 888.174,473.684 888.674,478.684 889.5,483.5 Z"/></g>
<g><path style="opacity:1" fill="#e6e6e6" d="M 874.5,434.5 C 885.1,433.283 895.1,435.116 904.5,440C 911.95,446.149 919.117,452.649 926,459.5C 929.338,463.184 931.338,467.518 932,472.5C 934.557,546.658 937.057,620.825 939.5,695C 939.591,703.726 937.091,711.559 932,718.5C 923.857,727.637 914.69,735.47 904.5,742C 892.905,743.602 881.238,743.935 869.5,743C 806.172,739.267 742.839,735.6 679.5,732C 674.069,731.523 669.069,729.856 664.5,727C 658.315,721.315 652.649,715.149 647.5,708.5C 649.167,708.5 650.833,708.5 652.5,708.5C 656.958,714.793 662.292,720.293 668.5,725C 672.281,726.827 676.281,727.827 680.5,728C 753.789,732.88 827.123,736.547 900.5,739C 904.796,737.185 908.796,734.852 912.5,732C 917.667,726.833 922.833,721.667 928,716.5C 930.777,713.282 932.777,709.615 934,705.5C 934.167,698.833 934.333,692.167 934.5,685.5C 932.924,614.467 930.757,543.467 928,472.5C 926.861,468.888 925.194,465.554 923,462.5C 915.286,453.109 906.119,445.609 895.5,440C 890.22,438.905 884.887,438.405 879.5,438.5C 877.246,437.876 875.579,436.543 874.5,434.5 Z"/></g>
<g><path style="opacity:1" fill="#fe0201" d="M 892.5,596.5 C 893.649,627.826 894.149,659.16 894,690.5C 883.529,699.97 873.363,709.803 863.5,720C 797.508,716.677 731.508,713.177 665.5,709.5C 662.833,709.167 660.167,708.833 657.5,708.5C 655.833,708.5 654.167,708.5 652.5,708.5C 650.833,708.5 649.167,708.5 647.5,708.5C 645.194,708.007 642.861,707.674 640.5,707.5C 636.5,707.5 632.5,707.5 628.5,707.5C 626.883,704.216 624.55,701.549 621.5,699.5C 620.2,696.568 618.2,694.234 615.5,692.5C 612.167,688.167 608.833,683.833 605.5,679.5C 606.041,673.948 606.708,668.448 607.5,663C 606.576,659.805 606.91,656.639 608.5,653.5C 607.899,651.275 607.566,649.109 607.5,647C 608.76,634.658 610.093,622.324 611.5,610C 611.167,607.667 610.833,605.333 610.5,603C 611.378,596.033 612.378,589.033 613.5,582C 613.399,579.052 613.066,576.052 612.5,573C 613.167,571 613.833,569 614.5,567C 614.318,564.347 613.985,561.68 613.5,559C 614.555,551.006 615.555,543.006 616.5,535C 615.505,531.275 615.839,527.608 617.5,524C 616.919,523.107 616.585,522.107 616.5,521C 617.824,507.327 618.99,493.493 620,479.5C 620.25,476.246 621.25,473.246 623,470.5C 628.5,465 634,459.5 639.5,454C 642.329,451.173 645.663,449.173 649.5,448C 717.501,444.457 785.168,441.791 852.5,440C 854.246,440.471 855.913,441.138 857.5,442C 865.321,448.156 872.821,454.656 880,461.5C 881.333,464.167 882.667,466.833 884,469.5C 885.571,507.265 887.238,544.931 889,582.5C 889.364,587.5 890.53,592.166 892.5,596.5 Z"/></g>
<g><path style="opacity:1" fill="#d9d9d9" d="M 879.5,438.5 C 884.887,438.405 890.22,438.905 895.5,440C 906.119,445.609 915.286,453.109 923,462.5C 925.194,465.554 926.861,468.888 928,472.5C 930.757,543.467 932.924,614.467 934.5,685.5C 934.333,692.167 934.167,698.833 934,705.5C 932.777,709.615 930.777,713.282 928,716.5C 922.833,721.667 917.667,726.833 912.5,732C 908.796,734.852 904.796,737.185 900.5,739C 827.123,736.547 753.789,732.88 680.5,728C 676.281,727.827 672.281,726.827 668.5,725C 662.292,720.293 656.958,714.793 652.5,708.5C 654.167,708.5 655.833,708.5 657.5,708.5C 661.976,716.474 668.642,721.64 677.5,724C 748.149,728.432 818.816,732.599 889.5,736.5C 894.339,736.624 899.005,735.79 903.5,734C 911.599,727.905 919.099,721.072 926,713.5C 930.009,707.469 931.842,700.802 931.5,693.5C 929.419,620.827 927.252,548.16 925,475.5C 924.144,471.456 922.478,467.789 920,464.5C 912.666,456.595 904.499,449.762 895.5,444C 891.582,442.844 887.582,442.344 883.5,442.5C 881.833,441.5 880.5,440.167 879.5,438.5 Z"/></g>
<g><path style="opacity:1" fill="#cccccc" d="M 883.5,442.5 C 887.582,442.344 891.582,442.844 895.5,444C 904.499,449.762 912.666,456.595 920,464.5C 922.478,467.789 924.144,471.456 925,475.5C 927.252,548.16 929.419,620.827 931.5,693.5C 931.842,700.802 930.009,707.469 926,713.5C 919.099,721.072 911.599,727.905 903.5,734C 899.005,735.79 894.339,736.624 889.5,736.5C 818.816,732.599 748.149,728.432 677.5,724C 668.642,721.64 661.976,716.474 657.5,708.5C 660.167,708.833 662.833,709.167 665.5,709.5C 668.337,714.597 672.67,717.764 678.5,719C 749.336,723.245 820.169,727.412 891,731.5C 895.916,731.122 900.416,729.622 904.5,727C 912.753,720.749 919.586,713.249 925,704.5C 925.884,700.887 926.384,697.22 926.5,693.5C 924.392,622.167 922.226,550.834 920,479.5C 919.605,475.981 918.605,472.648 917,469.5C 910.434,461.635 902.934,454.802 894.5,449C 892.414,448.685 890.414,448.185 888.5,447.5C 888.167,447.5 887.833,447.5 887.5,447.5C 886.167,445.833 884.833,444.167 883.5,442.5 Z"/></g>
<g><path style="opacity:1" fill="#c0bfbf" d="M 888.5,447.5 C 890.414,448.185 892.414,448.685 894.5,449C 902.934,454.802 910.434,461.635 917,469.5C 918.605,472.648 919.605,475.981 920,479.5C 922.226,550.834 924.392,622.167 926.5,693.5C 926.384,697.22 925.884,700.887 925,704.5C 919.586,713.249 912.753,720.749 904.5,727C 900.416,729.622 895.916,731.122 891,731.5C 820.169,727.412 749.336,723.245 678.5,719C 672.67,717.764 668.337,714.597 665.5,709.5C 731.508,713.177 797.508,716.677 863.5,720C 873.363,709.803 883.529,699.97 894,690.5C 894.149,659.16 893.649,627.826 892.5,596.5C 891.231,558.841 890.231,521.174 889.5,483.5C 889.482,473.82 889.148,464.153 888.5,454.5C 888.5,452.167 888.5,449.833 888.5,447.5 Z"/></g>
<g><path style="opacity:1" fill="#c1bebe" d="M 829.5,493.5 C 794.14,494.369 758.807,495.869 723.5,498C 712.205,500.03 706.038,506.863 705,518.5C 701.929,562.49 699.096,606.49 696.5,650.5C 688.169,650.116 679.836,649.782 671.5,649.5C 668.794,649.425 666.127,649.092 663.5,648.5C 663.5,647.5 663.5,646.5 663.5,645.5C 666.5,598.165 669.5,550.832 672.5,503.5C 672.885,497.561 673.885,491.728 675.5,486C 726.539,483.971 777.539,481.804 828.5,479.5C 829.493,484.12 829.827,488.786 829.5,493.5 Z"/></g>
<g><path style="opacity:1" fill="#d1d0cf" d="M 829.5,493.5 C 830.404,494.209 830.737,495.209 830.5,496.5C 830.5,502.167 830.5,507.833 830.5,513.5C 829.549,512.081 829.216,510.415 829.5,508.5C 829.5,507.167 829.5,505.833 829.5,504.5C 829.5,503.167 829.5,501.833 829.5,500.5C 794.468,501.307 759.468,502.807 724.5,505C 716.301,506.87 712.134,512.037 712,520.5C 708.613,563.801 705.78,607.135 703.5,650.5C 704.5,650.5 705.5,650.5 706.5,650.5C 708.099,650.232 709.432,650.566 710.5,651.5C 705.807,651.46 701.141,651.127 696.5,650.5C 699.096,606.49 701.929,562.49 705,518.5C 706.038,506.863 712.205,500.03 723.5,498C 758.807,495.869 794.14,494.369 829.5,493.5 Z"/></g>
<g><path style="opacity:1" fill="#f6100e" d="M 830.5,496.5 C 831.69,498.355 833.023,500.188 834.5,502C 834.043,502.414 833.709,502.914 833.5,503.5C 834.149,510.031 834.815,516.531 835.5,523C 834.872,525.37 834.539,527.703 834.5,530C 836.453,575.692 837.619,621.192 838,666.5C 837.444,671.389 834.944,674.889 830.5,677C 827.402,677.918 824.235,678.418 821,678.5C 772.759,675.381 724.259,672.381 675.5,669.5C 663.981,669.752 658.648,663.919 659.5,652C 660.589,630.23 662.256,608.564 664.5,587C 664.335,578.738 664.335,570.238 664.5,561.5C 665.463,554.95 666.463,548.45 667.5,542C 667.601,533.647 667.601,525.314 667.5,517C 668.813,513.631 669.646,510.131 670,506.5C 670.377,505.058 671.21,504.058 672.5,503.5C 669.5,550.832 666.5,598.165 663.5,645.5C 662.357,648.976 662.19,652.642 663,656.5C 663.186,654.1 663.686,651.766 664.5,649.5C 664.397,658.529 668.731,663.363 677.5,664C 724.555,666.402 771.555,669.236 818.5,672.5C 828.192,672.808 832.859,668.141 832.5,658.5C 833.166,650.841 833.5,643.007 833.5,635C 832.56,594.496 831.56,553.996 830.5,513.5C 830.5,507.833 830.5,502.167 830.5,496.5 Z"/></g>
<g><path style="opacity:1" fill="#e1e1e1" d="M 829.5,504.5 C 796.49,505.308 763.49,506.475 730.5,508C 726.169,508.331 722.336,509.831 719,512.5C 716.416,517.504 715.082,522.837 715,528.5C 712.415,569.202 709.581,609.868 706.5,650.5C 705.5,650.5 704.5,650.5 703.5,650.5C 705.78,607.135 708.613,563.801 712,520.5C 712.134,512.037 716.301,506.87 724.5,505C 759.468,502.807 794.468,501.307 829.5,500.5C 829.5,501.833 829.5,503.167 829.5,504.5 Z"/></g>
<g><path style="opacity:1" fill="#eeeeee" d="M 829.5,504.5 C 829.5,505.833 829.5,507.167 829.5,508.5C 797.836,509.667 766.17,510.833 734.5,512C 729.864,512.362 725.697,513.862 722,516.5C 720.046,521.971 719.046,527.638 719,533.5C 716.011,572.805 713.511,612.139 711.5,651.5C 711.167,651.5 710.833,651.5 710.5,651.5C 709.432,650.566 708.099,650.232 706.5,650.5C 709.581,609.868 712.415,569.202 715,528.5C 715.082,522.837 716.416,517.504 719,512.5C 722.336,509.831 726.169,508.331 730.5,508C 763.49,506.475 796.49,505.308 829.5,504.5 Z"/></g>
<g><path style="opacity:1" fill="#fefdfd" d="M 829.5,508.5 C 829.216,510.415 829.549,512.081 830.5,513.5C 831.56,553.996 832.56,594.496 833.5,635C 833.5,643.007 833.166,650.841 832.5,658.5C 830.167,658.5 827.833,658.5 825.5,658.5C 787.669,655.879 749.669,653.546 711.5,651.5C 713.511,612.139 716.011,572.805 719,533.5C 719.046,527.638 720.046,521.971 722,516.5C 725.697,513.862 729.864,512.362 734.5,512C 766.17,510.833 797.836,509.667 829.5,508.5 Z"/></g>
<g><path style="opacity:1" fill="#e7211f" d="M 413.5,561.5 C 414.038,563.117 414.371,564.784 414.5,566.5C 414.433,567.959 414.766,569.292 415.5,570.5C 415.5,571.833 415.5,573.167 415.5,574.5C 416.301,576.042 416.634,577.708 416.5,579.5C 417.301,581.042 417.634,582.708 417.5,584.5C 416.883,584.389 416.383,584.056 416,583.5C 415.303,577.679 413.969,572.013 412,566.5C 407.904,561.787 402.737,560.287 396.5,562C 385.161,563.787 373.827,565.62 362.5,567.5C 359.989,566.896 357.489,566.563 355,566.5C 348.688,568.166 342.354,569.833 336,571.5C 335.586,571.043 335.086,570.709 334.5,570.5C 317.336,573.998 300.669,576.998 284.5,579.5C 282.547,578.239 280.547,577.073 278.5,576C 278.398,573.671 278.731,571.171 279.5,568.5C 277.833,568.5 276.167,568.5 274.5,568.5C 287.075,566.18 299.742,563.847 312.5,561.5C 316.011,561.101 319.344,560.434 322.5,559.5C 325.237,559.599 327.904,559.265 330.5,558.5C 357.138,553.98 383.805,549.647 410.5,545.5C 411.664,550.828 412.664,556.162 413.5,561.5 Z"/></g>
<g><path style="opacity:1" fill="#f2f2f2" d="M 161.5,747.5 C 163.915,748.305 166.249,749.305 168.5,750.5C 169.851,756.02 173.184,759.853 178.5,762C 191.447,768.258 204.78,773.425 218.5,777.5C 223.825,776.681 227.991,774.015 231,769.5C 246.65,735.531 262.317,701.531 278,667.5C 279.614,664.763 281.781,662.597 284.5,661C 290.604,658.577 296.938,656.911 303.5,656C 351.531,648.186 399.531,640.186 447.5,632C 457.598,630.406 462.931,624.573 463.5,614.5C 461.989,603.778 460.156,593.111 458,582.5C 457.661,574.433 454.161,568.266 447.5,564C 444.667,563.833 441.833,563.667 439,563.5C 430.791,564.175 422.624,565.175 414.5,566.5C 414.371,564.784 414.038,563.117 413.5,561.5C 426,557.88 438.667,557.046 451.5,559C 456.853,562.862 460.353,568.028 462,574.5C 466.293,590.584 468.293,606.917 468,623.5C 465.762,630.07 461.262,634.237 454.5,636C 400.55,645.59 346.55,654.923 292.5,664C 290.051,664.725 287.717,665.725 285.5,667C 281.339,672.825 277.839,678.991 275,685.5C 262.294,715.956 248.628,745.956 234,775.5C 230.011,780.411 224.844,783.078 218.5,783.5C 202.627,778.732 187.294,772.565 172.5,765C 165.68,761.203 162.014,755.369 161.5,747.5 Z"/></g>
<g><path style="opacity:1" fill="#f50e0d" d="M 417.5,584.5 C 418.94,591.473 420.273,598.473 421.5,605.5C 418.833,605.833 416.167,606.167 413.5,606.5C 412.031,594.726 409.865,583.06 407,571.5C 406.167,570.667 405.333,569.833 404.5,569C 397.792,568.362 391.126,568.695 384.5,570C 361.328,574.035 338.662,577.868 316.5,581.5C 302.584,584.46 288.75,586.46 275,587.5C 268.201,582.776 267.035,576.942 271.5,570C 270.584,569.722 269.918,569.222 269.5,568.5C 271.167,568.5 272.833,568.5 274.5,568.5C 276.167,568.5 277.833,568.5 279.5,568.5C 278.731,571.171 278.398,573.671 278.5,576C 280.547,577.073 282.547,578.239 284.5,579.5C 300.669,576.998 317.336,573.998 334.5,570.5C 335.086,570.709 335.586,571.043 336,571.5C 342.354,569.833 348.688,568.166 355,566.5C 357.489,566.563 359.989,566.896 362.5,567.5C 373.827,565.62 385.161,563.787 396.5,562C 402.737,560.287 407.904,561.787 412,566.5C 413.969,572.013 415.303,577.679 416,583.5C 416.383,584.056 416.883,584.389 417.5,584.5 Z"/></g>
<g><path style="opacity:1" fill="#e6e6e5" d="M 168.5,750.5 C 171.618,751.559 174.618,752.892 177.5,754.5C 177.414,755.496 177.748,756.329 178.5,757C 190.76,763.718 203.594,768.884 217,772.5C 221.783,772.607 225.45,770.607 228,766.5C 243.667,732.5 259.333,698.5 275,664.5C 277.292,660.212 280.792,657.378 285.5,656C 337.367,646.355 389.367,637.355 441.5,629C 446.021,628.271 450.354,626.937 454.5,625C 457.633,622.041 459.3,618.374 459.5,614C 457.797,603.819 455.964,593.652 454,583.5C 453.112,578.831 451.445,574.497 449,570.5C 445.749,568.091 442.082,567.091 438,567.5C 430.457,568.23 422.957,569.23 415.5,570.5C 414.766,569.292 414.433,567.959 414.5,566.5C 422.624,565.175 430.791,564.175 439,563.5C 441.833,563.667 444.667,563.833 447.5,564C 454.161,568.266 457.661,574.433 458,582.5C 460.156,593.111 461.989,603.778 463.5,614.5C 462.931,624.573 457.598,630.406 447.5,632C 399.531,640.186 351.531,648.186 303.5,656C 296.938,656.911 290.604,658.577 284.5,661C 281.781,662.597 279.614,664.763 278,667.5C 262.317,701.531 246.65,735.531 231,769.5C 227.991,774.015 223.825,776.681 218.5,777.5C 204.78,773.425 191.447,768.258 178.5,762C 173.184,759.853 169.851,756.02 168.5,750.5 Z"/></g>
<g><path style="opacity:1" fill="#d9d9d9" d="M 177.5,754.5 C 179.297,755.73 181.297,756.396 183.5,756.5C 192.915,760.038 202.249,763.871 211.5,768C 216.152,769.193 220.319,768.36 224,765.5C 240.257,731.318 256.257,696.984 272,662.5C 277.316,654.588 284.816,650.421 294.5,650C 343.876,641.882 393.209,633.548 442.5,625C 450.41,624.754 454.743,620.754 455.5,613C 454.324,599.766 451.491,586.933 447,574.5C 444.737,572.409 442.07,571.076 439,570.5C 431.127,571.673 423.294,573.007 415.5,574.5C 415.5,573.167 415.5,571.833 415.5,570.5C 422.957,569.23 430.457,568.23 438,567.5C 442.082,567.091 445.749,568.091 449,570.5C 451.445,574.497 453.112,578.831 454,583.5C 455.964,593.652 457.797,603.819 459.5,614C 459.3,618.374 457.633,622.041 454.5,625C 450.354,626.937 446.021,628.271 441.5,629C 389.367,637.355 337.367,646.355 285.5,656C 280.792,657.378 277.292,660.212 275,664.5C 259.333,698.5 243.667,732.5 228,766.5C 225.45,770.607 221.783,772.607 217,772.5C 203.594,768.884 190.76,763.718 178.5,757C 177.748,756.329 177.414,755.496 177.5,754.5 Z"/></g>
<g><path style="opacity:1" fill="#cccccc" d="M 183.5,756.5 C 184.167,754.833 184.833,753.167 185.5,751.5C 193.842,755.005 202.176,758.505 210.5,762C 214.118,762.966 217.451,762.466 220.5,760.5C 236.143,728.08 251.309,695.414 266,662.5C 271.74,652.043 280.574,646.209 292.5,645C 338.81,637.226 385.144,629.559 431.5,622C 436.637,621.133 441.637,619.799 446.5,618C 447.333,617.167 448.167,616.333 449,615.5C 449.344,602.72 447.177,590.387 442.5,578.5C 440.213,577.078 437.713,576.411 435,576.5C 428.721,577.087 422.554,578.087 416.5,579.5C 416.634,577.708 416.301,576.042 415.5,574.5C 423.294,573.007 431.127,571.673 439,570.5C 442.07,571.076 444.737,572.409 447,574.5C 451.491,586.933 454.324,599.766 455.5,613C 454.743,620.754 450.41,624.754 442.5,625C 393.209,633.548 343.876,641.882 294.5,650C 284.816,650.421 277.316,654.588 272,662.5C 256.257,696.984 240.257,731.318 224,765.5C 220.319,768.36 216.152,769.193 211.5,768C 202.249,763.871 192.915,760.038 183.5,756.5 Z"/></g>
<g><path style="opacity:1" fill="#c0bfbf" d="M 185.5,751.5 C 203.024,712.951 220.691,674.451 238.5,636C 296.817,625.947 355.15,616.114 413.5,606.5C 416.167,606.167 418.833,605.833 421.5,605.5C 420.273,598.473 418.94,591.473 417.5,584.5C 417.634,582.708 417.301,581.042 416.5,579.5C 422.554,578.087 428.721,577.087 435,576.5C 437.713,576.411 440.213,577.078 442.5,578.5C 447.177,590.387 449.344,602.72 449,615.5C 448.167,616.333 447.333,617.167 446.5,618C 441.637,619.799 436.637,621.133 431.5,622C 385.144,629.559 338.81,637.226 292.5,645C 280.574,646.209 271.74,652.043 266,662.5C 251.309,695.414 236.143,728.08 220.5,760.5C 217.451,762.466 214.118,762.966 210.5,762C 202.176,758.505 193.842,755.005 185.5,751.5 Z"/></g>
<g><path style="opacity:1" fill="#e62020" d="M 671.5,649.5 C 679.836,649.782 688.169,650.116 696.5,650.5C 701.141,651.127 705.807,651.46 710.5,651.5C 710.833,651.5 711.167,651.5 711.5,651.5C 749.669,653.546 787.669,655.879 825.5,658.5C 826.166,660.506 826.166,662.34 825.5,664C 823.199,664.113 820.866,664.946 818.5,666.5C 811.717,665.528 805.05,664.195 798.5,662.5C 796.808,663.969 794.808,664.635 792.5,664.5C 788.787,664.091 785.12,663.424 781.5,662.5C 776.307,663.196 771.14,663.529 766,663.5C 765.055,663.095 764.388,662.428 764,661.5C 763.107,662.081 762.107,662.415 761,662.5C 756.002,662.115 751.169,661.115 746.5,659.5C 745.051,660.617 743.384,661.284 741.5,661.5C 732.047,659.865 722.547,659.532 713,660.5C 707.184,659.318 701.351,658.318 695.5,657.5C 689.168,658.084 683.001,658.084 677,657.5C 674.876,656.378 673.043,654.878 671.5,653C 672.167,652.667 672.833,652.333 673.5,652C 672.619,651.292 671.953,650.458 671.5,649.5 Z"/></g>
<g><path style="opacity:1" fill="#ec1717" d="M 663.5,645.5 C 663.5,646.5 663.5,647.5 663.5,648.5C 666.127,649.092 668.794,649.425 671.5,649.5C 671.953,650.458 672.619,651.292 673.5,652C 672.833,652.333 672.167,652.667 671.5,653C 673.043,654.878 674.876,656.378 677,657.5C 683.001,658.084 689.168,658.084 695.5,657.5C 701.351,658.318 707.184,659.318 713,660.5C 722.547,659.532 732.047,659.865 741.5,661.5C 743.384,661.284 745.051,660.617 746.5,659.5C 751.169,661.115 756.002,662.115 761,662.5C 762.107,662.415 763.107,662.081 764,661.5C 764.388,662.428 765.055,663.095 766,663.5C 771.14,663.529 776.307,663.196 781.5,662.5C 785.12,663.424 788.787,664.091 792.5,664.5C 794.808,664.635 796.808,663.969 798.5,662.5C 805.05,664.195 811.717,665.528 818.5,666.5C 820.866,664.946 823.199,664.113 825.5,664C 826.166,662.34 826.166,660.506 825.5,658.5C 827.833,658.5 830.167,658.5 832.5,658.5C 832.859,668.141 828.192,672.808 818.5,672.5C 771.555,669.236 724.555,666.402 677.5,664C 668.731,663.363 664.397,658.529 664.5,649.5C 663.686,651.766 663.186,654.1 663,656.5C 662.19,652.642 662.357,648.976 663.5,645.5 Z"/></g>
<g><path style="opacity:1" fill="#d7d6d6" d="M 567.5,686.5 C 568.376,686.369 569.043,686.702 569.5,687.5C 571.527,692.754 574.027,697.754 577,702.5C 578.739,704.741 580.906,706.408 583.5,707.5C 594.763,703.532 605.43,698.532 615.5,692.5C 618.2,694.234 620.2,696.568 621.5,699.5C 611.184,705.121 600.518,710.288 589.5,715C 580.976,718.622 574.476,716.455 570,708.5C 566.589,702.351 563.756,696.018 561.5,689.5C 563.181,687.992 565.181,686.992 567.5,686.5 Z"/></g>
<g><path style="opacity:1" fill="#f1f0f0" d="M 561.5,689.5 C 563.756,696.018 566.589,702.351 570,708.5C 574.476,716.455 580.976,718.622 589.5,715C 600.518,710.288 611.184,705.121 621.5,699.5C 624.55,701.549 626.883,704.216 628.5,707.5C 616.059,712.829 603.726,718.662 591.5,725C 581.874,729.437 573.374,727.937 566,720.5C 561.265,712.634 557.099,704.467 553.5,696C 553.164,694.97 552.497,694.47 551.5,694.5C 554.515,692.326 557.849,690.659 561.5,689.5 Z"/></g>
</svg>
